<svg t="1781961783576" class="icon" viewBox="0 0 1024 1024" version="1.1" xmlns="http://www.w3.org/2000/svg" p-id="11163" width="200" height="200"><path d="M553.984 681.984l0-340.010667 86.016 0 0 340.010667-86.016 0zM512 854.016q139.989333 0 240.981333-100.992t100.992-240.981333-100.992-240.981333-240.981333-100.992-240.981333 100.992-100.992 240.981333 100.992 240.981333 240.981333 100.992zM512 86.016q176 0 301.013333 125.013333t125.013333 301.013333-125.013333 301.013333-301.013333 125.013333-301.013333-125.013333-125.013333-301.013333 125.013333-301.013333 301.013333-125.013333zM384 681.984l0-340.010667 86.016 0 0 340.010667-86.016 0z" fill="#444444" p-id="11164"></path></svg>