<svg t="1781961094943" class="icon" viewBox="0 0 1024 1024" version="1.1" xmlns="http://www.w3.org/2000/svg" p-id="11013" width="200" height="200"><path d="M564.010667 648.021333q0 13.994667 20.010667 13.994667 9.984 0 13.994667-4.010667l8.021333-9.984q4.010667-8.021333 4.010667-11.989333l0-86.016q-4.010667-8.021333-4.010667-11.989333t-9.002667-9.002667-13.013333-4.992q-6.016 0-11.989333 6.016l-8.021333 8.021333q-6.016 8.021333-6.016 11.989333l0 86.016q6.016 8.021333 6.016 11.989333zM648.021333 605.994667q0 25.984-4.010667 34.005333l-11.989333 25.984q-13.994667 11.989333-22.016 11.989333-4.010667 0-13.013333 2.005333t-13.013333 2.005333q-18.005333 0-25.984-4.010667-4.010667-2.005333-9.984-6.016t-9.984-6.016q-18.005333-9.984-18.005333-59.989333l0-29.994667q0-25.984 4.010667-34.005333l13.994667-25.984q11.989333-11.989333 20.010667-11.989333 4.010667 0 13.013333-2.005333t13.013333-2.005333q18.005333 0 25.984 4.010667 4.010667 2.005333 11.008 6.016t11.008 6.016 11.989333 25.984q4.010667 11.989333 4.010667 34.005333l0 29.994667zM466.005333 681.984l-40.021333 0 0-139.989333-41.984 11.989333 0-29.994667 75.989333-24.021333 6.016 0 0 182.016zM512 214.016q141.994667 0 242.005333 100.010667t100.010667 240q0 141.994667-100.992 242.005333t-240.981333 100.010667-240.981333-100.010667-100.992-242.005333l86.016 0q0 105.984 75.989333 180.992t180.010667 75.008 180.010667-75.008 75.989333-180.992-75.989333-180.992-180.010667-75.008l0 171.989333-214.016-214.016 214.016-214.016 0 171.989333z" fill="#444444" p-id="11014"></path></svg>